<svg width="62" height="72" viewBox="0 0 62 72" fill="none" xmlns="http://www.w3.org/2000/svg">
	<path d="M26.2268 33.4364L30.9583 30.7024L30.9583 13.5876M26.2268 33.4364L26.2268 16.3215M26.2268 33.4364L11.3871 41.9938L11.3871 47.4543M26.2268 33.4364L30.9583 30.7024M30.9583 64.2062V69.6666M30.9583 64.2062L6.65555 50.1882V50.1808M30.9583 64.2062L55.2611 50.1882M30.9583 69.6666L1.91663 52.9148V19.4185M30.9583 69.6666L60 52.9148V19.4185M1.91663 19.4185L6.65558 22.145M1.91663 19.4185L30.9583 2.66663L60 19.4185M6.65558 22.145L6.65555 50.1808M6.65558 22.145L30.9583 8.12709M6.65555 50.1808L11.3871 47.4543M55.2611 50.1882L50.5295 47.4543M55.2611 50.1882L55.261 27.6055L50.5295 30.3394M11.3871 47.4543L16.1186 50.1882M11.3871 47.4543V24.8789L26.2268 16.3215M11.3871 47.4543L30.9583 36.1629L55.261 22.145L60 19.4185M16.1186 50.1882L30.9583 58.7457L45.798 50.1882M16.1186 50.1882L30.9583 41.6308M45.798 50.1882L50.5295 47.4543M45.798 50.1882L30.9583 41.6308M50.5295 47.4543L50.5295 30.3394M50.5295 47.4543V41.9938L40.4287 36.1629M50.5295 47.4543L35.6898 38.8969M30.9583 8.12709V13.5876M30.9583 8.12709L50.5295 19.4185L45.798 22.145M30.9583 13.5876L26.2268 16.3215M30.9583 13.5876L35.6898 16.3215M30.9583 13.5876L30.9583 30.7024M45.798 22.145L35.6898 16.3215M45.798 22.145L35.6898 27.9759M35.6898 16.3215L35.6898 27.9759M35.6898 27.9759L30.9583 30.7024M50.5295 30.3394L40.4287 36.1629M40.4287 36.1629L35.6898 38.8969M35.6898 38.8969L30.9583 41.6234V41.6308M35.6898 38.8969L30.9583 41.6308" stroke="#D4D4D6" stroke-width="3" />
</svg>
