<svg width="25" height="25" viewBox="0 0 25 25" fill="none" xmlns="http://www.w3.org/2000/svg">
	<path d="M12.7736 22.9749C18.2964 22.9749 22.7736 18.4977 22.7736 12.9749C22.7736 7.45201 18.2964 2.97485 12.7736 2.97485C7.25074 2.97485 2.77359 7.45201 2.77359 12.9749C2.77359 18.4977 7.25074 22.9749 12.7736 22.9749Z" fill="#ED79AA" />
	<path opacity="0.5" fill-rule="evenodd" clip-rule="evenodd" d="M17.4311 8.55548L16.2624 9.73235C15.8413 9.30647 15.3398 8.96844 14.787 8.73788C14.2343 8.50732 13.6413 8.38881 13.0424 8.38923C10.5955 8.38923 8.5986 10.333 8.4936 12.7705H8.4886V17.2217C7.42308 16.0644 6.83301 14.548 6.8361 12.9749C6.8361 9.52298 9.61485 6.72486 13.0424 6.72486C13.8586 6.72428 14.6669 6.8858 15.4203 7.20004C16.1737 7.51429 16.8572 7.97501 17.4311 8.55548ZM17.4311 17.3942C16.2966 18.5421 14.7573 19.1993 13.1436 19.2249V17.5599C14.318 17.5344 15.4364 17.0532 16.2624 16.218L17.4311 17.3942Z" fill="white" />
	<path fill-rule="evenodd" clip-rule="evenodd" d="M10.0743 18.4649V12.7711H10.0787C10.1662 11.143 11.5049 9.84985 13.1437 9.84985C14.8387 9.84985 16.2131 11.2336 16.2131 12.9411C16.2131 14.648 14.8387 16.0317 13.1443 16.0317C12.5984 16.0326 12.0623 15.8865 11.5924 15.6086V19.053C11.0626 18.9254 10.552 18.7278 10.0743 18.4655V18.4649ZM13.1437 14.5036C13.3482 14.5029 13.5506 14.462 13.7392 14.3831C13.9279 14.3042 14.0992 14.189 14.2433 14.0439C14.3874 13.8988 14.5015 13.7267 14.5791 13.5375C14.6567 13.3483 14.6963 13.1456 14.6956 12.9411C14.6956 12.078 14.0006 11.3786 13.1437 11.3786C12.9392 11.3793 12.7369 11.4203 12.5483 11.4993C12.3597 11.5782 12.1885 11.6935 12.0445 11.8386C11.9004 11.9837 11.7863 12.1557 11.7088 12.3449C11.6312 12.5341 11.5917 12.7367 11.5924 12.9411C11.5924 13.8036 12.2868 14.5036 13.1437 14.5036Z" fill="white" />
</svg>
