<svg width="25" height="25" viewBox="0 0 25 25" fill="none" xmlns="http://www.w3.org/2000/svg">
	<path d="M12.7736 22.9749C18.2964 22.9749 22.7736 18.4977 22.7736 12.9749C22.7736 7.45201 18.2964 2.97485 12.7736 2.97485C7.25074 2.97485 2.77359 7.45201 2.77359 12.9749C2.77359 18.4977 7.25074 22.9749 12.7736 22.9749Z" fill="#5546FF" />
	<path d="M16.8538 18.2441L14.7011 14.8649H17.7925V13.5883H7.65479V14.8649H10.7461L8.59346 18.2441H10.1955L12.7236 14.2766L15.2518 18.2441H16.8538ZM17.7925 12.3492V11.0726H14.7637L16.8913 7.73096H15.2768L12.7236 11.761L10.1704 7.73096H8.55591L10.6836 11.0726H7.65479V12.3617L17.7925 12.3492Z" fill="white" />
</svg>
