<svg width="25" height="25" viewBox="0 0 25 25" fill="none" xmlns="http://www.w3.org/2000/svg">
	<path d="M12.7709 3.99891C15.8564 3.99891 18.7671 4.93902 21.4488 6.47574L21.6477 6.56613L21.5874 6.77706C21.5814 9.79625 20.7618 12.7552 19.2191 15.3465C17.7245 17.9981 15.549 20.2098 12.9155 21.7465L12.7709 21.8489L12.6142 21.7404C9.95056 20.1977 7.93174 18.0222 6.40105 15.3525C4.87036 12.6889 3.94833 9.72393 3.94833 6.64448L3.92422 6.49984L4.02667 6.41548C6.69634 4.87876 9.67938 3.98083 12.7649 3.98083" fill="#8D33E5" />
	<path d="M21.5452 6.39143C18.8816 4.84267 15.8564 4.01706 12.7709 4.005V21.7465L12.9697 21.8671C15.6274 20.3183 17.827 18.1006 19.3516 15.437C20.9004 12.7854 21.72 9.77824 21.726 6.71083V6.49388L21.5452 6.39143Z" fill="#7000DF" />
	<path d="M21.7562 6.67465V6.43963L21.5573 6.32512C18.8816 4.78841 15.8504 3.97485 12.7649 3.97485C9.6794 3.97485 6.64815 4.78841 3.97849 6.32512L3.77359 6.43963V6.67465C3.78564 9.76014 4.5992 12.7854 6.14194 15.449C7.68468 18.1187 9.90237 20.3303 12.572 21.8731L12.7709 21.9876L12.9698 21.8731C15.6394 20.3364 17.8571 18.1187 19.3999 15.455C20.9487 12.7854 21.7682 9.76014 21.7743 6.67465H21.7562ZM12.7589 21.0957C7.58224 18.0705 4.26775 12.6588 4.23159 6.6626C6.841 5.1982 9.77582 4.42683 12.7709 4.42683C15.766 4.42683 18.7008 5.1982 21.3102 6.6626C21.2801 12.6709 17.9596 18.0705 12.7709 21.0897L12.7589 21.0957Z" fill="#7000DF" />
	<path d="M12.7709 21.0897C7.58224 18.0705 4.26775 12.6588 4.23159 6.6626C6.841 5.1982 9.78185 4.42683 12.7709 4.42683V3.97485C9.68543 3.97485 6.64815 4.78238 3.97246 6.32512L3.77359 6.43963V6.67465C3.77962 9.76014 4.5992 12.7854 6.14194 15.449C7.68468 18.1187 9.90237 20.3303 12.572 21.8731L12.7709 21.9876V21.0897Z" fill="#8D33E5" />
	<path d="M18.4236 9.57936C18.4236 9.51307 18.4116 9.44075 18.3875 9.38049C18.1886 8.80196 17.8873 8.25959 17.5076 7.78351C17.4172 7.65696 17.3088 7.54246 17.2123 7.42193L17.134 7.33153C17.1039 7.29538 17.0617 7.26524 17.0195 7.24114C16.9351 7.19293 16.8447 7.16882 16.7483 7.16882C16.7001 7.17485 16.6579 7.18088 16.6097 7.19895C16.5856 7.20498 16.5675 7.21101 16.5494 7.22306C16.5494 7.22306 13.2771 8.9948 12.7649 9.25996C12.2587 8.9948 9.00447 7.21101 8.92612 7.20498C8.88394 7.1869 8.83573 7.18088 8.78752 7.17485C8.6911 7.17485 8.59468 7.19895 8.51633 7.24717C8.47415 7.27127 8.43799 7.3014 8.40786 7.33756L8.32952 7.42796C8.22707 7.54246 8.13065 7.65696 8.03423 7.78954C7.67265 8.25356 7.37736 8.7658 7.16643 9.3142C7.12425 9.39857 7.10617 9.48896 7.10617 9.57936C7.10617 9.66975 7.12425 9.76617 7.16041 9.84452C7.19657 9.92889 7.25683 10.0012 7.32915 10.0615C7.3412 10.0735 7.35325 10.0856 7.37133 10.0916L7.41351 10.1217L7.47378 10.1639L7.99204 10.4833L9.01652 11.1221L10.041 11.7669L10.8907 12.2792L10.9028 15.8769V16.2746V16.4735C10.9028 16.5096 10.9028 16.5518 10.9028 16.588C10.9088 16.6543 10.9269 16.7266 10.951 16.7869C11.0052 16.9074 11.0836 17.0098 11.186 17.0882C11.2884 17.1665 11.409 17.2208 11.5355 17.2509C11.6621 17.281 11.7947 17.3111 11.9272 17.3292C12.4817 17.4076 13.0361 17.4076 13.5905 17.3292C13.7894 17.2991 13.8376 17.287 13.9702 17.2569C14.1027 17.2268 14.2233 17.1725 14.3257 17.0882C14.4282 17.0098 14.5125 16.9074 14.5607 16.7869C14.5849 16.7206 14.6029 16.6543 14.609 16.588C14.609 16.5458 14.609 16.5096 14.609 16.4735C14.609 16.4735 14.6511 13.2253 14.6391 12.2852L15.4828 11.7729L16.5314 11.1221L17.5619 10.4773L18.0741 10.1579C18.1826 10.1036 18.273 10.0253 18.3332 9.92286C18.3935 9.81439 18.4297 9.69988 18.4236 9.57936Z" fill="#3F017F" />
	<path d="M11.2824 12.0742C11.2824 11.7729 11.2161 11.4716 11.0835 11.1944C10.9509 10.9232 10.7581 10.6821 10.5231 10.4953C9.8481 9.95899 8.79952 9.76614 7.78107 9.98309C7.71478 9.99514 7.52796 9.88064 7.46167 9.86859C7.46167 9.86859 7.44359 9.85654 7.47975 9.88667C7.51591 9.9168 7.50988 9.94693 7.51591 9.95296L11.2763 12.1104V12.0742H11.2824Z" fill="#F4A900" />
	<path d="M14.5728 9.71188C15.3743 9.39851 16.0673 8.59098 16.3867 7.60266C16.4108 7.53034 16.5374 7.51226 16.5856 7.46405C16.6037 7.452 16.5434 7.38571 16.5615 7.37366L12.7649 9.56122L12.8131 9.58532C13.0783 9.73598 13.3675 9.8324 13.6749 9.85048C13.9762 9.87459 14.2835 9.82638 14.5668 9.71188H14.5728Z" fill="#78B6E4" />
	<path d="M14.1931 12.1767C13.934 12.3274 13.711 12.5383 13.5423 12.7914C13.3735 13.0445 13.2711 13.3277 13.2289 13.6291C13.1084 14.4788 13.4639 15.4791 14.163 16.2385C14.2172 16.2927 14.2112 16.4012 14.2233 16.4735C14.2233 16.4916 14.2474 16.4916 14.2654 16.5036L14.2835 12.1345L14.1931 12.1767Z" fill="#20B5AC" />
	<path d="M13.4096 13.7857C13.4639 13.4843 13.5844 13.2071 13.7592 12.9601C13.9339 12.713 14.169 12.5141 14.4341 12.3695L14.2774 12.1284L14.1931 12.1827C13.9339 12.3333 13.711 12.5442 13.5422 12.7973C13.3735 13.0504 13.271 13.3337 13.2288 13.635C13.1264 14.3762 13.3855 15.244 13.9279 15.9612C13.5241 15.3103 13.3373 14.551 13.4096 13.7857Z" fill="#3F017F" />
	<path d="M14.609 9.48892C14.3257 9.59136 14.0184 9.62752 13.7171 9.59739C13.4158 9.56726 13.1265 9.46481 12.8674 9.3021L12.7288 9.55521L12.8131 9.60944C13.0723 9.7601 13.3676 9.8505 13.6689 9.86858C13.9702 9.89268 14.2715 9.84447 14.5487 9.72997C15.3442 9.36839 15.983 8.73563 16.3506 7.94015C16.3506 7.9281 16.2964 7.86181 16.2421 7.98233C15.8805 8.65126 15.308 9.18157 14.609 9.48892Z" fill="#3F017F" />
	<path d="M10.3061 10.6279C10.5291 10.8087 10.7099 11.0437 10.8244 11.3089C10.9389 11.574 10.9871 11.8633 10.969 12.1525L11.2583 12.2429L11.3487 12.1465C11.3668 11.5439 11.1016 10.7785 10.6255 10.3868C10.0711 9.91677 8.90199 9.76009 8.11857 9.88061C8.08844 9.88061 8.07639 9.92882 8.28128 9.9228C9.0165 9.91074 9.73363 10.1578 10.3061 10.6279Z" fill="#3F017F" />
	<path d="M12.7709 17.0038C12.3671 17.0038 11.9633 16.9495 11.5716 16.8471C11.4873 16.823 11.4149 16.7748 11.3667 16.7085C11.3125 16.6422 11.2824 16.5578 11.2824 16.4734V12.0742C11.2824 11.7729 11.2161 11.4716 11.0895 11.2004C10.963 10.9292 10.7701 10.6882 10.5351 10.5013C9.86015 9.96501 8.81157 9.77216 7.79312 9.98911C7.74491 10.0012 7.69067 10.0012 7.63643 9.99514C7.5822 9.98911 7.53399 9.965 7.4918 9.9409C7.40141 9.88666 7.33512 9.79627 7.31101 9.69382C7.29293 9.61548 7.29896 9.53714 7.32909 9.46482C7.45564 9.10324 7.61835 8.74769 7.80517 8.41021C8.00404 8.06068 8.24509 7.73526 8.53436 7.45202C8.59462 7.39176 8.67899 7.3556 8.76336 7.34355C8.84773 7.3315 8.93812 7.34958 9.01044 7.39176L12.7166 9.52508L12.8131 9.58535C13.0782 9.736 13.3675 9.83243 13.6748 9.8505C13.9761 9.87461 14.2835 9.8264 14.5607 9.70587C15.3622 9.3925 16.0552 8.58497 16.3746 7.59665C16.3927 7.54844 16.4168 7.50023 16.4469 7.45805C16.4831 7.41586 16.5253 7.38573 16.5735 7.36163C16.6217 7.33752 16.6699 7.31944 16.7242 7.31342C16.7784 7.30739 16.8326 7.31342 16.8808 7.3315C16.9532 7.3556 17.0194 7.39779 17.0677 7.45805C17.3208 7.75334 17.5437 8.06671 17.7426 8.40418C17.9475 8.75371 18.1042 9.12734 18.2066 9.51906C18.2247 9.60342 18.2187 9.69382 18.1885 9.77216C18.1524 9.8505 18.0982 9.91679 18.0198 9.95898L14.2895 12.1104L14.1871 12.1706C13.9279 12.3213 13.705 12.5322 13.5422 12.7853C13.3795 13.0384 13.265 13.3217 13.2289 13.617C13.1083 14.4667 13.4639 15.4671 14.163 16.2264C14.2112 16.2806 14.2473 16.3469 14.2594 16.4132C14.2714 16.4855 14.2714 16.5578 14.2473 16.6241C14.2232 16.6904 14.181 16.7507 14.1268 16.7989C14.0665 16.8471 14.0002 16.8772 13.9279 16.8893C13.5422 16.9616 13.1566 16.9977 12.7709 17.0038Z" fill="white" />
</svg>
