<svg width="25" height="25" viewBox="0 0 25 25" fill="none" xmlns="http://www.w3.org/2000/svg">
	<path d="M12.522 22.9749C18.0449 22.9749 22.522 18.4977 22.522 12.9749C22.522 7.45201 18.0449 2.97485 12.522 2.97485C6.99919 2.97485 2.52203 7.45201 2.52203 12.9749C2.52203 18.4977 6.99919 22.9749 12.522 22.9749Z" fill="#FF007A" />
	<path d="M10.1756 6.15182C9.99743 6.12432 9.98993 6.12057 10.0737 6.10807C10.2343 6.08307 10.6143 6.11745 10.8762 6.17932C11.4868 6.32495 12.0424 6.69682 12.6362 7.35745L12.7937 7.53245L13.0187 7.49682C13.9687 7.3437 14.9356 7.46557 15.7437 7.8387C15.9662 7.9412 16.3168 8.14557 16.3606 8.1987C16.3749 8.21495 16.4006 8.32307 16.4174 8.43807C16.4774 8.8362 16.4474 9.1412 16.3262 9.36932C16.2599 9.49307 16.2562 9.53182 16.3006 9.63807C16.3216 9.68196 16.3546 9.71905 16.3957 9.74513C16.4368 9.7712 16.4844 9.78522 16.5331 9.78557C16.7343 9.78557 16.9506 9.46057 17.0506 9.0087L17.0906 8.82932L17.1693 8.9187C17.6018 9.4087 17.9412 10.0768 17.9993 10.5518L18.0149 10.6762L17.9418 10.5637C17.8168 10.3699 17.6918 10.2374 17.5306 10.1306C17.2406 9.9387 16.9337 9.8737 16.1212 9.83057C15.3874 9.79182 14.9718 9.72932 14.5606 9.59495C13.8599 9.36682 13.5068 9.06245 12.6743 7.97057C12.3049 7.48557 12.0762 7.21745 11.8493 7.00182C11.3324 6.51057 10.8249 6.25307 10.1756 6.15182Z" fill="white" />
	<path d="M16.5704 7.6011C16.5891 7.2761 16.6329 7.06173 16.7216 6.8661C16.7566 6.7886 16.7898 6.72485 16.7948 6.72485C16.7892 6.76873 16.7776 6.81163 16.7604 6.85235C16.696 7.04235 16.6854 7.30235 16.7298 7.60423C16.786 7.98798 16.8185 8.04298 17.2235 8.45735C17.4141 8.65173 17.6354 8.89673 17.7154 9.00235L17.861 9.1936L17.7154 9.05673C17.5373 8.88985 17.1273 8.56298 17.0366 8.51673C16.976 8.48548 16.9666 8.4861 16.9291 8.52298C16.8948 8.55798 16.8873 8.60923 16.8829 8.8536C16.8754 9.2336 16.8235 9.4786 16.6979 9.72235C16.6304 9.8536 16.6198 9.8261 16.681 9.67673C16.7266 9.56548 16.731 9.51673 16.731 9.1486C16.731 8.4086 16.6429 8.2311 16.1273 7.9261C15.9721 7.83608 15.8128 7.75348 15.6498 7.6786C15.5692 7.6463 15.4911 7.60829 15.416 7.56485C15.4304 7.55048 15.9329 7.69673 16.1348 7.77485C16.436 7.89048 16.4854 7.90548 16.5223 7.8911C16.5466 7.88173 16.5585 7.81048 16.5704 7.6011ZM10.566 8.86673C10.2041 8.3686 9.98039 7.60423 10.0285 7.03298L10.0435 6.8561L10.126 6.8711C10.281 6.89923 10.5479 6.9986 10.6729 7.07485C11.0154 7.28298 11.1641 7.55735 11.3148 8.2611C11.3591 8.46735 11.4173 8.70048 11.4441 8.77985C11.4866 8.90673 11.6491 9.2036 11.7816 9.39673C11.8766 9.53548 11.8129 9.6011 11.6029 9.58235C11.2816 9.55298 10.8466 9.25298 10.566 8.86673ZM16.1316 12.5761C14.4398 11.8949 13.8441 11.3036 13.8441 10.3061C13.8441 10.1592 13.8491 10.0392 13.8548 10.0392C13.861 10.0392 13.9266 10.0874 14.0004 10.1467C14.3435 10.4217 14.7279 10.5392 15.791 10.6942C16.4166 10.7861 16.7691 10.8599 17.0941 10.9674C18.1266 11.3099 18.7654 12.0049 18.9179 12.9511C18.9616 13.2261 18.936 13.7417 18.8641 14.0136C18.8079 14.2286 18.6348 14.6155 18.5891 14.6305C18.5766 14.6342 18.5641 14.5861 18.5604 14.5192C18.5429 14.1642 18.3635 13.818 18.0616 13.5586C17.7185 13.2642 17.2585 13.0292 16.1316 12.5761ZM14.9441 12.8586C14.9242 12.7379 14.8968 12.6185 14.8623 12.5011L14.8185 12.3724L14.8991 12.4624C15.0098 12.5874 15.0979 12.7461 15.1716 12.9586C15.2285 13.1205 15.2348 13.1686 15.2341 13.4317C15.2341 13.6905 15.2273 13.7442 15.1748 13.8905C15.1018 14.1049 14.9795 14.2993 14.8179 14.458C14.5085 14.773 14.1116 14.9467 13.5379 15.0192C13.4379 15.0317 13.1479 15.053 12.8923 15.0661C12.2485 15.0999 11.8254 15.1686 11.4448 15.3024C11.4104 15.3177 11.3736 15.3266 11.336 15.3286C11.321 15.313 11.5798 15.1586 11.7941 15.0555C12.096 14.9099 12.396 14.8305 13.0691 14.7186C13.4016 14.663 13.7454 14.5961 13.8323 14.5692C14.656 14.3167 15.0798 13.6655 14.9441 12.8586Z" fill="white" />
	<path d="M15.3133 14.4442C15.0883 13.9611 15.037 13.4942 15.1602 13.0592C15.1733 13.013 15.1945 12.9749 15.207 12.9749C15.2493 12.9902 15.2891 13.0116 15.3252 13.0386C15.4289 13.1086 15.6364 13.2261 16.1895 13.5274C16.8802 13.9042 17.2739 14.1961 17.542 14.5286C17.7764 14.8205 17.9214 15.153 17.9914 15.558C18.0308 15.7874 18.0077 16.3392 17.9489 16.5705C17.7633 17.2992 17.3314 17.8717 16.7164 18.2055C16.6584 18.2391 16.5982 18.2689 16.5364 18.2949C16.5277 18.2949 16.5602 18.2117 16.6095 18.1092C16.8158 17.6767 16.8402 17.2555 16.6833 16.7867C16.5877 16.4999 16.392 16.1492 15.9977 15.558C15.5389 14.8705 15.4264 14.6867 15.3133 14.4442ZM8.95891 17.0511C9.58703 16.5211 10.3677 16.1449 11.0795 16.0292C11.3858 15.9792 11.897 15.9992 12.1808 16.0717C12.6358 16.188 13.0433 16.4492 13.2552 16.7599C13.4614 17.0636 13.5508 17.3286 13.6427 17.9174C13.6802 18.1499 13.7195 18.383 13.7314 18.4361C13.8002 18.7411 13.9358 18.9855 14.1033 19.108C14.3689 19.3024 14.827 19.3142 15.277 19.1392C15.3241 19.1177 15.3736 19.1021 15.4245 19.093C15.4408 19.1092 15.2145 19.2611 15.0545 19.3411C14.8657 19.4421 14.6543 19.4933 14.4402 19.4899C14.0277 19.4899 13.6852 19.2805 13.3995 18.8524C13.3433 18.768 13.217 18.5161 13.1183 18.2917C12.817 17.6042 12.6683 17.3942 12.3183 17.1649C12.0127 16.9649 11.6195 16.9292 11.3239 17.0742C10.9352 17.2649 10.827 17.7617 11.1052 18.0761C11.2158 18.2011 11.422 18.3092 11.5908 18.3299C11.6644 18.3396 11.7392 18.3334 11.8103 18.3118C11.8813 18.2901 11.9468 18.2535 12.0025 18.2043C12.0581 18.1551 12.1026 18.0945 12.1328 18.0267C12.163 17.9589 12.1783 17.8854 12.1777 17.8111C12.1777 17.6036 12.0977 17.4861 11.8977 17.3955C11.6245 17.2724 11.3308 17.4161 11.332 17.673C11.3327 17.7824 11.3802 17.8511 11.4902 17.9011C11.5608 17.9324 11.562 17.9355 11.5045 17.9236C11.2539 17.8711 11.1952 17.5692 11.397 17.3686C11.6389 17.1274 12.1395 17.2336 12.3114 17.5624C12.3839 17.7005 12.392 17.9761 12.3289 18.1424C12.1883 18.5142 11.777 18.7092 11.3602 18.603C11.0764 18.5305 10.9608 18.4524 10.6189 18.0999C10.0245 17.4874 9.79391 17.3686 8.93641 17.2349L8.77203 17.2092L8.95891 17.0511Z" fill="white" />
	<path fill-rule="evenodd" clip-rule="evenodd" d="M6.27203 4.95235L6.33203 5.02548C8.64953 7.86298 9.84703 9.33548 9.92328 9.44048C10.0483 9.61423 10.0014 9.76985 9.78641 9.89235C9.66703 9.96048 9.42078 10.0292 9.29828 10.0292C9.15891 10.0292 9.00203 9.96235 8.88766 9.85423C8.80703 9.77735 8.48141 9.2911 7.72953 8.12423C7.37744 7.57273 7.02076 7.02416 6.65953 6.4786C6.62891 6.44985 6.62953 6.45048 7.67078 8.3136C8.32453 9.4836 8.54578 9.89673 8.54578 9.95235C8.54578 10.0649 8.51453 10.1236 8.37578 10.2786C8.14453 10.5367 8.04141 10.8267 7.96641 11.4267C7.88266 12.0999 7.64766 12.5749 6.99516 13.388C6.61391 13.8642 6.55141 13.9517 6.45453 14.1436C6.33328 14.3849 6.30016 14.5205 6.28641 14.8255C6.27203 15.148 6.30016 15.3567 6.39891 15.6649C6.48516 15.9349 6.57516 16.1136 6.80516 16.4699C7.00391 16.778 7.11828 17.0067 7.11828 17.0961C7.11828 17.1674 7.13203 17.1674 7.44016 17.098C8.17703 16.9317 8.77516 16.6386 9.11203 16.2799C9.32016 16.058 9.36891 15.9355 9.37078 15.6311C9.37141 15.4324 9.36453 15.3905 9.31078 15.2761C9.22328 15.0899 9.06391 14.9349 8.71266 14.6949C8.25203 14.3799 8.05578 14.1261 8.00141 13.778C7.95641 13.4924 8.00828 13.2905 8.26328 12.7567C8.52641 12.2042 8.59203 11.9692 8.63641 11.4124C8.66453 11.0524 8.70391 10.9105 8.80766 10.7967C8.91516 10.678 9.01266 10.6374 9.27953 10.6011C9.71453 10.5417 9.99141 10.4292 10.2189 10.2199C10.4164 10.0374 10.4989 9.86173 10.5114 9.59798L10.5214 9.39798L10.4108 9.26923C10.252 9.08423 8.93891 7.63548 6.47078 4.92173L6.40453 4.84985L6.27203 4.95235ZM7.34328 15.1911C7.38689 15.1139 7.39991 15.0231 7.37977 14.9368C7.35963 14.8504 7.30779 14.7748 7.23453 14.7249C7.09203 14.6299 6.87016 14.6749 6.87016 14.7986C6.87016 14.8361 6.89078 14.8636 6.93766 14.888C7.01703 14.9286 7.02266 14.9749 6.96078 15.068C6.89766 15.163 6.90266 15.2467 6.97516 15.3036C7.09141 15.3949 7.25578 15.3442 7.34328 15.1911ZM10.7958 10.7061C10.5914 10.7686 10.3933 10.9855 10.3314 11.2124C10.2939 11.3505 10.3152 11.5936 10.3714 11.6686C10.462 11.7899 10.5502 11.8217 10.7877 11.8199C11.2527 11.8167 11.6564 11.6174 11.7039 11.368C11.7427 11.1636 11.5645 10.8805 11.3202 10.7555C11.1939 10.6917 10.9258 10.6661 10.7958 10.7061ZM11.3395 11.1311C11.4114 11.0292 11.3795 10.9186 11.2583 10.8449C11.0258 10.703 10.6745 10.8199 10.6745 11.0399C10.6745 11.1486 10.8577 11.268 11.0252 11.268C11.1377 11.268 11.2902 11.2011 11.3395 11.1311Z" fill="white" />
</svg>
