<svg width="21" height="18" viewBox="0 0 21 18" fill="none" xmlns="http://www.w3.org/2000/svg">
	<path fill-rule="evenodd" clip-rule="evenodd" d="M4.18665 0.363421L0.538393 8.02502C0.523804 8.05278 0.51878 8.08458 0.524098 8.11548C0.529416 8.14639 0.54478 8.17468 0.567809 8.19596L10.416 17.6376C10.4443 17.6631 10.4811 17.6772 10.5193 17.6772C10.5574 17.6772 10.5942 17.6631 10.6226 17.6376L20.4766 8.19596C20.4994 8.17453 20.5146 8.14625 20.5199 8.11541C20.5253 8.08458 20.5204 8.05285 20.5061 8.02502L16.8578 0.363421C16.8481 0.336772 16.8303 0.313862 16.8068 0.297957C16.7833 0.282052 16.7554 0.273964 16.7271 0.274845H4.31608C4.28811 0.275611 4.26094 0.284355 4.23778 0.300049C4.21462 0.315742 4.19642 0.33773 4.18534 0.363421H4.18665Z" fill="#50AF95" />
	<path fill-rule="evenodd" clip-rule="evenodd" d="M11.7897 8.80881C11.7191 8.81469 11.3537 8.83822 10.5402 8.83822C9.89206 8.83822 9.43219 8.82057 9.26713 8.80881C6.76251 8.69703 4.89426 8.26069 4.89426 7.74198C4.89426 7.22328 6.76251 6.78138 9.26713 6.6696V8.37279C9.43055 8.38456 9.89794 8.41398 10.5461 8.41398C11.324 8.41398 11.7129 8.37868 11.7838 8.37279V6.6696C14.2826 6.78138 16.1508 7.21772 16.1508 7.7361C16.1508 8.25448 14.2878 8.69703 11.7897 8.80881ZM11.7897 6.49866V4.97196H15.2788V2.64417H5.77838V4.97196H9.26713V6.49866C6.4324 6.6294 4.29907 7.18798 4.29907 7.86586C4.29907 8.54374 6.4324 9.09774 9.26713 9.23305V14.1191H11.7897V9.23305C14.6186 9.10232 16.7463 8.54341 16.7463 7.87174C16.7463 7.20007 14.6186 6.62809 11.7897 6.49899V6.49866Z" fill="white" />
</svg>
