<svg width="368" height="198" viewBox="0 0 368 198" fill="none" xmlns="http://www.w3.org/2000/svg">
	<g opacity="0.2">
		<path d="M0.666626 143L5.52126 122.428L10.3759 124.936L14.4214 122.428L16.8487 128.449L23.3216 105.367H30.6035V100.35L37.0763 107.375V101.855H42.7401L47.5947 94.3286L51.6402 103.862L53.2584 93.8269L63.7768 98.3428L68.6314 105.367L72.677 98.3428L77.5316 115.905L82.3862 112.894L88.05 115.905L92.9046 89.8127L97.7592 91.8198L100.996 84.7951L104.232 87.8057L105.85 81.2827L115.56 98.3428L125.269 94.3286L134.169 105.367L144.687 109.883L154.397 130.456L160.06 89.8127L163.297 81.2827L166.533 87.8057L172.197 106.194L177.052 112.717V98.6678L180.288 101.678L185.143 93.1484L186.761 102.682L192.425 97.1625L195.661 101.678L199.706 108.703L202.943 94.6537L205.37 98.6678L212.652 94.6537L218.316 104.187L222.361 97.1625L231.262 101.678L234.498 82.6113L239.353 73.0777L242.589 82.6113L246.635 73.0777L253.916 82.6113L257.153 75.0848L265.244 106.194L268.48 101.678L270.908 104.187L276.571 96.159L280.617 82.6113L291.135 86.6254V97.1625L296.799 38.1307L300.035 41.1413L304.081 32.6113L308.936 36.6254L314.599 29.0989L318.645 31.6078L322.69 23.0777L326.736 26.5901L329.163 25.0848L331.591 27.5936L334.827 50.1025L338.063 45.0848L341.3 41.3216L344.536 37.5583L346.964 42.0742L351.009 11.5371L355.055 13.5442L368 1" stroke="#A1A1A1" stroke-linecap="round" />
		<g filter="url(#filter0_b_3702_13104)">
			<path d="M5.52126 122.428L0.666626 143V202H368V1L355.055 13.5442L351.009 11.5371L346.964 42.0742L344.536 37.5583L338.063 45.0848L334.827 50.1025L331.591 27.5936L329.163 25.0848L326.736 26.5901L322.69 23.0777L318.645 31.6078L314.599 29.0989L308.936 36.6254L304.081 32.6113L300.035 41.1413L296.799 38.1307L291.135 97.1625V86.6254L280.617 82.6113L276.571 96.159L270.908 104.187L268.48 101.678L265.244 106.194L257.153 75.0848L253.916 82.6113L246.635 73.0777L242.589 82.6113L239.353 73.0777L234.498 82.6113L231.262 101.678L222.361 97.1625L218.316 104.187L212.652 94.6537L205.37 98.6678L202.943 94.6537L199.706 108.703L195.661 101.678L192.424 97.1625L186.761 102.682L185.143 93.1484L180.288 101.678L177.051 98.6678V112.717L172.197 106.194L166.533 87.8057L163.297 81.2827L160.06 89.8127L154.397 130.456L144.687 109.883L134.169 105.367L125.269 94.3286L115.56 98.3428L105.85 81.2827L104.232 87.8057L100.996 84.7951L97.7592 91.8198L92.9046 89.8127L88.05 115.905L82.3862 112.894L77.5316 115.905L72.677 98.3428L68.6314 105.367L63.7768 98.3428L53.2584 93.8269L51.6402 103.862L47.5947 94.3286L42.7401 101.855H37.0763V107.375L30.6035 100.35V105.367H23.3216L16.8487 128.449L14.4214 122.428L10.3759 124.936L5.52126 122.428Z" fill="url(#paint0_linear_3702_13104)" fill-opacity="0.51" />
		</g>
	</g>
	<defs>
		<filter id="filter0_b_3702_13104" x="-3.33337" y="-3" width="375.334" height="209" filterUnits="userSpaceOnUse" color-interpolation-filters="sRGB">
			<feFlood flood-opacity="0" result="BackgroundImageFix" />
			<feGaussianBlur in="BackgroundImageFix" stdDeviation="2" />
			<feComposite in2="SourceAlpha" operator="in" result="effect1_backgroundBlur_3702_13104" />
			<feBlend mode="normal" in="SourceGraphic" in2="effect1_backgroundBlur_3702_13104" result="shape" />
		</filter>
		<linearGradient id="paint0_linear_3702_13104" x1="184.333" y1="83.5" x2="184.333" y2="202" gradientUnits="userSpaceOnUse">
			<stop stop-color="white" stop-opacity="0.1" />
			<stop offset="1" stop-color="white" stop-opacity="0.01" />
			<stop offset="1" stop-color="white" stop-opacity="0" />
		</linearGradient>
	</defs>
</svg>
