<svg width="367" height="197" viewBox="0 0 367 197" fill="none" xmlns="http://www.w3.org/2000/svg">
	<g filter="url(#filter0_b_3702_13077)">
		<path d="M4.85022 121.428L0 142V201H367V0L354.066 12.5442L350.024 10.5371L345.982 21.0742L343.557 16.5583L337.09 24.0848L333.857 29.1025L330.623 26.5936L328.198 24.0848L325.773 25.5901L321.731 22.0777L317.689 30.6078L313.648 28.0989L307.989 35.6254L303.139 31.6113L299.097 40.1413L295.863 37.1307L290.205 46.1625V35.6254L279.696 31.6113L275.654 45.159L269.996 53.1873L267.57 50.6784L264.337 55.1943L256.253 24.0848L253.02 31.6113L245.744 22.0777L241.703 31.6113L238.469 22.0777L233.619 31.6113L230.385 50.6784L221.493 46.1625L217.452 53.1873L211.793 43.6537L204.518 47.6678L202.093 43.6537L198.859 57.7032L194.817 50.6784L191.584 46.1625L185.925 51.682L184.308 42.1484L179.458 50.6784L176.225 47.6678V61.7173L171.374 55.1943L165.716 86.8057L162.482 80.2827L159.249 88.8127L153.59 129.456L143.89 108.883L133.381 104.367L124.489 93.3286L114.789 97.3428L105.088 80.2827L103.471 86.8057L100.238 83.7951L97.0044 90.8198L92.1542 88.8127L87.304 114.905L81.6454 111.894L76.7952 114.905L71.9449 97.3428L67.9031 104.367L63.0529 97.3428L52.5441 92.8269L50.9273 102.862L46.8855 93.3286L42.0352 100.855H36.3767V106.375L29.9097 99.3498V104.367H22.6344L16.1674 127.449L13.7423 121.428L9.70044 123.936L4.85022 121.428Z" fill="url(#paint0_linear_3702_13077)" fill-opacity="0.51" />
	</g>
	<defs>
		<filter id="filter0_b_3702_13077" x="-4" y="-4" width="375" height="209" filterUnits="userSpaceOnUse" color-interpolation-filters="sRGB">
			<feFlood flood-opacity="0" result="BackgroundImageFix" />
			<feGaussianBlur in="BackgroundImageFix" stdDeviation="2" />
			<feComposite in2="SourceAlpha" operator="in" result="effect1_backgroundBlur_3702_13077" />
			<feBlend mode="normal" in="SourceGraphic" in2="effect1_backgroundBlur_3702_13077" result="shape" />
		</filter>
		<linearGradient id="paint0_linear_3702_13077" x1="183.5" y1="82.5" x2="183.5" y2="198.5" gradientUnits="userSpaceOnUse">
			<stop stop-color="#77ED91" />
			<stop offset="1" stop-color="white" stop-opacity="0.01" />
		</linearGradient>
	</defs>
</svg>
