<svg width="16" height="22" viewBox="0 0 16 22" fill="none" xmlns="http://www.w3.org/2000/svg">
	<path fill-rule="evenodd" clip-rule="evenodd" d="M14.6346 6.79083C14.4083 4.41093 12.355 3.61056 9.76171 3.38006L9.7658 0.0791279L7.75602 0.076937L7.75209 3.29087C7.22442 3.29014 6.68448 3.29989 6.14804 3.30992L6.15242 0.0747078L4.14426 0.0721158L4.13935 3.3721C3.70433 3.38044 3.27712 3.38798 2.86056 3.38773L2.86031 3.37749L0.0890669 3.37305L0.0868877 5.51899C0.0868877 5.51899 1.57068 5.49258 1.54598 5.51987C2.35983 5.52114 2.62465 5.99382 2.70065 6.40177L2.69608 10.1622C2.75224 10.1626 2.8255 10.165 2.90844 10.1765L2.69673 10.1764L2.68904 15.4445C2.653 15.7006 2.50193 16.1088 1.93332 16.1091C1.959 16.1319 0.47275 16.1068 0.47275 16.1068L0.0706379 18.5064L2.68593 18.5095C2.98125 18.5102 3.27369 18.5138 3.56293 18.5173L3.56304 18.5173L3.56312 18.5173C3.75037 18.5195 3.93628 18.5218 4.12075 18.5233L4.11753 21.8623L6.12462 21.8652L6.12926 18.5618C6.67979 18.574 7.21311 18.5791 7.73377 18.5793L7.72875 21.8673L9.738 21.8696L9.74283 18.537C13.121 18.3474 15.4869 17.4993 15.7835 14.3283C16.0238 11.7744 14.8242 10.633 12.9072 10.1696C14.0726 9.57678 14.8022 8.53253 14.6341 6.79097L14.6346 6.79083ZM11.814 13.926C11.8116 16.216 8.21374 16.161 6.56901 16.1358L6.56877 16.1358C6.42158 16.1335 6.29004 16.1315 6.17813 16.1315L6.18422 11.7081C6.32111 11.7083 6.48737 11.7046 6.67572 11.7004C8.36146 11.6627 11.8162 11.5855 11.8145 13.9259L11.814 13.926ZM6.51734 9.68781C7.8905 9.71202 10.8836 9.76478 10.8868 7.68427C10.8898 5.55592 8.01005 5.62879 6.60363 5.66438C6.44552 5.66838 6.30603 5.67191 6.19135 5.67179L6.18618 9.68354C6.28083 9.68364 6.39238 9.68561 6.51734 9.68781Z" fill="#DEC95B" />
</svg>
