<svg width="15" height="24" viewBox="0 0 15 24" fill="none" xmlns="http://www.w3.org/2000/svg">
	<path d="M3.71345 14.4217L5.57072 15.3035C6.75892 15.8669 8.12015 15.8669 9.31987 15.3035L11.1771 14.4217C12.8383 13.6378 14.3726 15.7689 13.219 17.2632L9.22759 22.4441C8.24705 23.7178 6.64356 23.7178 5.65147 22.4441L1.67161 17.2632C0.50649 15.7689 2.04075 13.6378 3.71345 14.4217Z" fill="#306AFF" />
	<path d="M3.4826 11.0413C3.13652 11.3108 3.18267 11.8742 3.57488 12.0824L6.28581 13.5154C6.92028 13.8584 7.94697 13.8584 8.56991 13.5154L11.2808 12.0824C11.6615 11.8742 11.7077 11.323 11.3731 11.0413L7.78547 8.17533C7.57783 8.0161 7.30096 8.0161 7.09331 8.17533L3.4826 11.0413Z" fill="#306AFF" />
	<path d="M14.2226 6.84039L9.41219 0.471465C9.3199 0.348986 9.21608 0.238754 9.11225 0.128523C8.81232 -0.177676 8.3855 0.104027 8.3855 0.544953V5.81157C8.3855 6.00753 8.46625 6.19125 8.61621 6.30148L13.4036 10.1228L13.6112 10.2821C13.8189 10.4413 14.1073 10.4413 14.2803 10.2453C15.0878 9.31448 15.0763 7.9672 14.2226 6.84039Z" fill="#306AFF" />
	<path d="M0.64494 6.95087L5.43232 0.483956C5.52461 0.361476 5.61689 0.251245 5.72071 0.141014C6.02065 -0.165185 6.44747 0.10427 6.44747 0.557443V5.90979C6.44747 6.10576 6.36672 6.27723 6.21676 6.39971L1.45245 10.2823L1.25634 10.4415C1.04869 10.6008 0.760301 10.6008 0.575728 10.3925C-0.20871 9.44945 -0.197177 8.10217 0.64494 6.95087Z" fill="#306AFF" />
</svg>
