<svg width="19" height="20" viewBox="0 0 19 20" fill="none" xmlns="http://www.w3.org/2000/svg">
	<path d="M12.5598 0.538075C11.2102 1.31008 10.4111 2.70418 10.4111 4.17428C10.4111 4.94628 10.7295 5.72428 11.128 6.41838C11.4464 7.03838 11.6025 8.12048 10.4913 8.66249C9.69832 9.12449 8.66092 8.81649 8.18643 8.04248C7.71184 7.42248 7.1552 6.80248 6.43823 6.34038C5.08861 5.56838 3.49651 5.56838 2.14679 6.34038C0.797076 7.11238 0 8.50998 0 9.98049C0 11.451 0.792968 12.8446 2.14649 13.6187C3.4961 14.3907 5.0882 14.3907 6.43792 13.6187C7.15489 13.2307 7.71143 12.6147 8.10602 11.9166C8.42439 11.3746 9.29952 10.6766 10.4109 11.2966C11.2038 11.7586 11.4421 12.7687 11.0476 13.5407C10.6491 14.2387 10.4109 15.0128 10.4109 15.7848C10.4109 17.2569 11.2038 18.6489 12.5596 19.421C13.9092 20.193 15.5013 20.193 16.851 19.421C18.2008 18.649 19 17.2549 19 15.7848C19 14.3147 18.205 12.9207 16.8513 12.1466C16.1343 11.7586 15.3393 11.6046 14.4662 11.6046C13.7492 11.6046 12.7981 11.1426 12.7981 9.98049C12.7981 9.05049 13.5151 8.35639 14.4662 8.35639C15.2592 8.35639 16.1343 8.20238 16.8513 7.81438C18.2009 7.04238 19 5.64828 19 4.17828C19 2.70828 18.205 1.31418 16.8513 0.542075C16.2145 0.154074 15.4214 7.39542e-05 14.7048 7.39542e-05C13.9919 -0.00392605 13.1928 0.154074 12.5601 0.538075" fill="#43AEE2" />
</svg>
