<svg width="49" height="48" viewBox="0 0 49 48" fill="none" xmlns="http://www.w3.org/2000/svg">
	<path d="M24.7002 48C37.967 48 48.722 37.2548 48.722 24C48.722 10.7452 37.967 0 24.7002 0C11.4333 0 0.678345 10.7452 0.678345 24C0.678345 37.2548 11.4333 48 24.7002 48Z" fill="#F00500" />
	<path d="M33.8712 25.5312C33.8562 25.6152 33.6115 25.8642 33.3652 26.0472C32.6446 26.5737 31.3549 27.0642 30.0442 27.2997C29.2981 27.4347 28.5519 27.4557 28.3267 27.3462C28.181 27.2727 28.16 27.2157 28.2126 27.0282C28.3222 26.6382 28.678 26.2092 29.2305 25.8072C29.5127 25.6047 30.6568 24.9102 31.1883 24.6177C32.0651 24.1377 32.7752 23.8527 33.2556 23.7837C33.4073 23.7627 33.5905 23.7567 33.646 23.7837C33.7421 23.8197 33.8457 24.0972 33.8862 24.4302C33.9087 24.6072 33.8982 25.3902 33.8712 25.5312ZM21.5705 27.2577C21.5405 27.3207 21.3829 27.3882 21.2057 27.4137C21.027 27.4407 20.485 27.4242 20.1773 27.3882C19.0693 27.2412 17.8952 26.9022 17.0394 26.4852C16.559 26.2512 16.2137 26.0157 15.9584 25.7607L15.8113 25.6092L15.7963 25.4112C15.7693 25.0662 15.7753 24.5247 15.8173 24.3312C15.8445 24.17 15.8993 24.0147 15.9795 23.8722C16.02 23.8197 16.02 23.8197 16.2092 23.8197C16.4389 23.8197 16.631 23.8557 16.9448 23.9547C17.5874 24.1542 18.5423 24.6342 19.7073 25.3332C20.6682 25.9062 21.0285 26.1882 21.3048 26.5737C21.4925 26.8137 21.6171 27.1527 21.5705 27.2577ZM28.9647 34.5192C28.9647 34.5342 28.9017 34.7847 28.8236 35.0817C28.7733 35.2638 28.7262 35.4469 28.6825 35.6307C28.6239 35.6352 28.5729 35.6412 28.5143 35.6352H28.3492L28.118 36.1782C27.9934 36.4752 27.8778 36.7512 27.8628 36.7932L27.8312 36.8667L27.7216 36.6882L27.612 36.5112V35.0667L27.57 35.0772C27.4799 35.0982 26.8493 35.1822 26.5731 35.2077C25.4308 35.3215 24.2788 35.2968 23.1425 35.1342C23.0281 35.1144 22.9129 35.1004 22.7971 35.0922C22.7926 35.0982 22.7971 35.4312 22.8077 35.8437L22.8227 36.5847L22.7356 36.7197C22.6875 36.7932 22.641 36.8547 22.641 36.8607C22.626 36.8757 22.5734 36.7932 22.4533 36.5532C22.3242 36.3014 22.2259 36.035 22.1606 35.7597L22.1245 35.6097L21.9624 35.6187L21.8002 35.6352L21.7582 35.4417C21.7353 35.3244 21.7163 35.2063 21.7012 35.0877L21.6861 34.9212L21.551 34.8012L21.3784 34.6542C21.3513 34.6332 21.3408 34.5972 21.3408 34.5657V34.5027L21.9939 34.5087L22.647 34.5132L22.6665 34.5807L22.6875 34.6497L22.9128 34.6602L23.7895 34.6857L24.4426 34.7007L24.6093 34.4412L24.782 34.1802H25.0012L24.9966 33.6372L24.9906 33.0942L24.7039 32.9697C23.779 32.5632 23.237 32.0997 23.0329 31.5357C22.9908 31.4202 22.9908 31.3782 22.9803 30.8577C22.9758 30.3402 22.9758 30.2937 23.0118 30.1782C23.0471 30.0504 23.1153 29.9342 23.2096 29.841C23.3039 29.7478 23.4211 29.681 23.5493 29.6472C23.6394 29.6202 23.8736 29.6202 25.1062 29.6202L26.5566 29.6262L26.7187 29.7042C26.875 29.7684 27.0102 29.8749 27.1091 30.0117C27.2352 30.1782 27.2727 30.3087 27.2727 30.6267C27.2727 31.0812 27.2412 31.4727 27.1946 31.6287C27.1255 31.8433 27.0231 32.0457 26.8914 32.2287C26.6301 32.5632 26.1557 32.8962 25.7203 33.0477L25.5957 33.0942L25.6017 33.6432L25.6062 34.1907L25.7218 34.2012L25.8359 34.2117L25.9936 34.4457L26.1437 34.6812H26.8448C27.2307 34.6812 27.57 34.6857 27.6015 34.6902C27.6541 34.7022 27.6646 34.6962 27.7156 34.6077L27.7787 34.5132H28.3792C28.8296 34.4922 28.9647 34.5027 28.9647 34.5192Z" fill="black" />
	<path d="M26.2021 36.0182C26.103 36.0752 26.0355 36.1007 26.0204 36.0917C26.0054 36.0857 25.9304 36.0227 25.8523 35.9657L25.7112 35.8517L25.5655 36.0077C25.2472 36.3527 25.2352 36.3677 25.1421 36.3722C24.9965 36.3872 24.965 36.3617 24.7878 36.0962C24.6932 35.9612 24.6212 35.8457 24.6212 35.8457C24.6212 35.8457 24.5521 35.8352 24.474 35.8307L24.3284 35.8157L24.2608 35.9552L24.1918 36.0962L24.0717 36.0602C23.9775 36.0292 23.8853 35.9926 23.7954 35.9507L23.6393 35.8727V35.5742L25.028 35.5802L26.4168 35.5847L26.4213 35.7257C26.4273 35.8922 26.4318 35.8877 26.2021 36.0182Z" fill="black" />
	<path d="M39.259 29.6548C39.2545 29.6323 39.2545 29.5948 39.25 29.5393C37.7919 29.4014 36.321 29.553 34.9218 29.9855C33.5226 30.418 32.223 31.1228 31.0976 32.0593C31.0976 32.0593 30.0286 27.1543 25.0171 27.1543C20.0025 27.1543 18.1453 32.0593 18.1453 32.0593C15.3363 29.0383 11.5769 29.2573 10.2181 29.4553L10.2136 29.5543C10.1716 30.3103 10.1926 30.6703 10.3187 31.1443C10.7091 32.6323 11.9162 34.2703 13.8064 35.8768C16.9022 38.5063 21.1 40.4038 24.2799 40.6243C27.5949 40.8493 32.4879 38.9128 35.7458 36.0853C36.2563 35.6323 36.7367 35.1523 37.1871 34.6408C37.5099 34.2658 37.9904 33.6178 37.9543 33.6178C37.9438 33.6178 37.9543 33.6073 37.9754 33.5968C37.9904 33.5863 38.0054 33.5713 37.9964 33.5608C37.9904 33.5548 38.0009 33.5398 38.0174 33.5353C38.0324 33.5293 38.0429 33.5203 38.0384 33.5083C38.0324 33.4978 38.0384 33.4873 38.0594 33.4828C38.0745 33.4768 38.0805 33.4618 38.0745 33.4513C38.0684 33.4408 38.0745 33.4303 38.085 33.4303C38.0955 33.4303 38.106 33.4153 38.106 33.4048C38.106 33.3943 38.1165 33.3778 38.127 33.3778C38.1375 33.3778 38.148 33.3673 38.148 33.3568C38.1654 33.3141 38.1881 33.2738 38.2156 33.2368C38.2937 33.1168 38.6059 32.5588 38.6495 32.4658C38.9467 31.7923 39.1344 31.1923 39.223 30.5923C39.2545 30.3058 39.28 29.7793 39.259 29.6533V29.6548ZM26.2062 36.0178C26.1071 36.0748 26.0395 36.1003 26.0245 36.0913C26.0095 36.0853 25.9344 36.0223 25.8564 35.9653L25.7152 35.8513L25.5696 36.0073C25.2513 36.3523 25.2393 36.3673 25.1462 36.3718C25.0006 36.3868 24.969 36.3613 24.7919 36.0958C24.6973 35.9608 24.6252 35.8453 24.6252 35.8453C24.6252 35.8453 24.5562 35.8348 24.4781 35.8303L24.3325 35.8153L24.2649 35.9548L24.1958 36.0958L24.0757 36.0598C23.9816 36.0287 23.8893 35.9922 23.7995 35.9503L23.6433 35.8723V35.5738L25.0321 35.5798L26.4209 35.5843L26.4254 35.7253C26.4314 35.8918 26.4359 35.8873 26.2062 36.0178ZM28.8185 35.0788C28.7683 35.2606 28.7207 35.4431 28.6759 35.6263C28.6189 35.6308 28.5663 35.6368 28.5093 35.6308H28.3426L28.1174 36.1798C27.9928 36.4768 27.8772 36.7528 27.8622 36.7948L27.8306 36.8683L27.721 36.6898L27.6114 36.5128V35.0683L27.5694 35.0788C27.4793 35.0998 26.8488 35.1838 26.5725 35.2093C25.4302 35.3231 24.2783 35.2984 23.1419 35.1358C23.0275 35.1161 22.9123 35.1021 22.7966 35.0938C22.7921 35.0998 22.7966 35.4328 22.8071 35.8453L22.8221 36.5863L22.735 36.7213C22.687 36.7948 22.6404 36.8563 22.6404 36.8623C22.6254 36.8773 22.5729 36.7948 22.4528 36.5548C22.3236 36.303 22.2253 36.0366 22.16 35.7613L22.124 35.6113L21.9618 35.6218L21.7997 35.6368L21.7576 35.4433C21.7347 35.326 21.7157 35.2079 21.7006 35.0893L21.6856 34.9228L21.5504 34.8028C21.494 34.7525 21.4365 34.7035 21.3778 34.6558C21.3508 34.6348 21.3403 34.5988 21.3403 34.5673V34.5043L21.9933 34.5103L22.6464 34.5148L22.666 34.5823L22.687 34.6513L22.9122 34.6618L23.789 34.6873L24.4421 34.7023L24.6087 34.4428L24.7814 34.1818H25.0006L24.9961 33.6388L24.9901 33.0958L24.7033 32.9713C23.7785 32.5648 23.2365 32.1013 23.0323 31.5373C22.9903 31.4218 22.9903 31.3798 22.9797 30.8593C22.9752 30.3418 22.9752 30.2953 23.0113 30.1798C23.0465 30.052 23.1147 29.9358 23.2091 29.8426C23.3034 29.7494 23.4205 29.6826 23.5488 29.6488C23.6388 29.6218 23.8731 29.6218 25.1057 29.6218L26.556 29.6278L26.7181 29.7058C26.8743 29.77 27.0095 29.8765 27.1085 30.0133C27.2346 30.1798 27.2721 30.3103 27.2721 30.6283C27.2721 31.0828 27.2406 31.4743 27.1941 31.6303C27.1249 31.8449 27.0226 32.0473 26.8908 32.2303C26.6296 32.5648 26.1551 32.8978 25.7197 33.0493L25.5951 33.0958L25.6011 33.6448L25.6056 34.1923L25.7212 34.2028L25.8353 34.2133L25.993 34.4473L26.1431 34.6828H26.8442C27.2301 34.6828 27.5694 34.6873 27.6009 34.6918C27.6535 34.7038 27.664 34.6978 27.715 34.6093L27.7781 34.5148H28.3786C28.8441 34.5148 28.9792 34.5208 28.9792 34.5358C28.9642 34.5313 28.8951 34.7863 28.817 35.0788H28.8185Z" fill="white" />
	<path d="M39.2204 29.1215C39.2099 28.8791 39.1939 28.6371 39.1724 28.3955C38.9472 26.027 38.3421 24.092 37.1936 22.0415C37.1506 21.9712 37.1125 21.898 37.0795 21.8225C37.069 21.8075 37.0645 21.7925 37.0585 21.782C37.2206 21.296 37.8842 19.2665 38.4097 16.946C39.1259 13.796 39.5808 10.112 38.192 9.00647C38.192 9.00647 35.7898 8.82947 32.5739 11.9795C31.7016 12.8495 30.9029 13.7945 30.1927 14.801L29.9675 14.729C28.6753 14.3062 27.3352 14.0467 25.9784 13.9565C25.5716 13.9265 24.0522 13.9265 23.5567 13.9565C22.0584 14.0555 20.9083 14.2805 19.6036 14.7335C19.5556 14.7524 19.5071 14.7699 19.458 14.786C18.722 13.7818 17.8991 12.8441 16.9988 11.984C13.6507 8.81897 11.16 9.00197 11.16 9.00197C9.68862 10.1435 10.1901 13.994 10.9498 17.249C11.327 18.8461 11.7769 20.4252 12.298 21.9815C12.2811 22.0205 12.262 22.0585 12.2409 22.0955C11.0248 24.5585 10.3657 26.9315 10.2096 29.456C11.5713 29.258 15.3262 29.033 18.1398 32.0585C18.1398 32.0585 19.9985 27.155 25.0115 27.155C30.0231 27.155 31.0936 32.06 31.0936 32.06C32.2195 31.1249 33.519 30.4209 34.9177 29.9885C36.3164 29.5561 37.7867 29.4036 39.2445 29.54L39.2189 29.1215H39.2204ZM13.2859 20.0135C13.2859 20.0135 11.3341 15.1355 11.8341 12.3485C11.9181 11.8805 12.0743 11.468 12.3205 11.156C12.3205 11.156 14.5335 11.375 18.1053 15.3395C18.1053 15.3395 17.4267 15.668 16.5183 16.367C16.5183 16.367 16.5123 16.3715 16.5078 16.3715C15.2064 17.3639 14.1119 18.6012 13.2859 20.0135ZM21.5734 27.2585C21.5404 27.3215 21.3842 27.389 21.2071 27.4145C21.0284 27.4415 20.4864 27.425 20.1787 27.389C19.0706 27.242 17.8966 26.903 17.0408 26.486C16.5604 26.252 16.2151 26.0165 15.9598 25.7615L15.8127 25.61L15.7977 25.412C15.7706 25.067 15.7767 24.5255 15.8187 24.332C15.8458 24.1708 15.9007 24.0155 15.9808 23.873C16.0214 23.8205 16.0214 23.8205 16.2105 23.8205C16.4403 23.8205 16.6324 23.8565 16.9462 23.9555C17.5888 24.155 18.5437 24.635 19.7087 25.334C20.6696 25.907 21.0299 26.189 21.3062 26.5745C21.4938 26.8145 21.6185 27.1535 21.5719 27.2585H21.5734ZM33.8726 25.532C33.8576 25.616 33.6129 25.865 33.3666 26.048C32.646 26.5745 31.3563 27.065 30.0456 27.3005C29.2994 27.4355 28.5533 27.4565 28.3281 27.347C28.1824 27.2735 28.1614 27.2165 28.214 27.029C28.3236 26.639 28.6794 26.21 29.2319 25.808C29.5141 25.604 30.6582 24.911 31.1897 24.6185C32.0664 24.1385 32.7766 23.8535 33.257 23.7845C33.4087 23.7635 33.5918 23.7575 33.6489 23.7845C33.7435 23.8205 33.8471 24.098 33.8891 24.431C33.9101 24.608 33.8996 25.391 33.8741 25.532H33.8726ZM33.0063 16.367L32.9958 16.361C32.5181 15.9707 32.0043 15.6266 31.4614 15.3335C34.913 11.369 37.0465 11.15 37.0465 11.15C37.2822 11.468 37.4338 11.8745 37.5179 12.344C38.0028 15.1295 36.1186 20.012 36.1186 20.012C35.3277 18.6068 34.2706 17.3687 33.0063 16.367Z" fill="#FFA409" />
	<path d="M37.5182 12.3463C37.1098 12.2953 35.1836 12.2848 33.0006 16.3693L32.9901 16.3633C32.5124 15.973 31.9986 15.629 31.4557 15.3358C34.9073 11.3713 37.0408 11.1523 37.0408 11.1523C37.281 11.4703 37.4341 11.8768 37.5167 12.3463H37.5182Z" fill="#FF9300" />
	<path d="M36.1233 20.0116C35.3323 18.6047 34.2734 17.3659 33.0065 16.3651C35.1895 12.2806 37.1112 12.2911 37.5226 12.3421C38.009 15.1336 36.1233 20.0116 36.1233 20.0116ZM37.6006 12.3571L37.5226 12.3421L37.6006 12.3571Z" fill="#FF8300" />
	<path d="M18.1025 15.3358C18.1025 15.3358 17.4239 15.6658 16.5155 16.3633C16.5155 16.3633 16.5095 16.3693 16.505 16.3693C14.244 12.2788 12.2532 12.2953 11.8268 12.3463C11.9094 11.8768 12.067 11.4658 12.3117 11.1523C12.3177 11.1523 14.5307 11.3713 18.1025 15.3373V15.3358Z" fill="#FF9300" />
	<path d="M16.5127 16.3651C15.2087 17.3573 14.1125 18.5957 13.2863 20.0101C13.2863 20.0101 11.3345 15.1336 11.8345 12.3421C12.2579 12.2911 14.2517 12.2806 16.5127 16.3651Z" fill="#FF8300" />
	<path d="M11.8366 12.3477L11.7526 12.3627L11.8351 12.3477H11.8366Z" fill="#FF8300" />
	<path d="M30.8359 22.7236C30.8359 22.7236 29.1649 22.8271 29.3736 21.5236C29.5837 20.2186 30.8884 20.0626 31.2533 20.1136C31.6196 20.1661 33.0804 20.6881 32.8207 21.7846C32.5595 22.8796 32.1931 22.6696 31.9844 22.7236C31.7757 22.7746 30.8359 22.7236 30.8359 22.7236ZM18.5127 22.7236C18.5127 22.7236 16.8432 22.8271 17.0519 21.5236C17.2621 20.2186 18.5652 20.0626 18.9316 20.1136C19.2964 20.1661 20.7587 20.6881 20.4975 21.7846C20.2363 22.8796 19.8714 22.6696 19.6627 22.7236C19.4525 22.7746 18.5142 22.7236 18.5142 22.7236H18.5127Z" fill="white" />
</svg>
